<?xml version="1.0" encoding="UTF-8" standalone="no"?>
<!-- Created with Inkscape (http://www.inkscape.org/) -->

<svg
   xmlns:dc="http://purl.org/dc/elements/1.1/"
   xmlns:cc="http://creativecommons.org/ns#"
   xmlns:rdf="http://www.w3.org/1999/02/22-rdf-syntax-ns#"
   xmlns:svg="http://www.w3.org/2000/svg"
   xmlns="http://www.w3.org/2000/svg"
   xmlns:sodipodi="http://sodipodi.sourceforge.net/DTD/sodipodi-0.dtd"
   xmlns:inkscape="http://www.inkscape.org/namespaces/inkscape"
   version="1.1"
   width="300"
   height="300"
   id="svg2"
   inkscape:version="0.47 r22583"
   sodipodi:docname="kawa-logo.svg"
   inkscape:export-filename="/media/home/kuba/img/moje/logo/kawa_logo_alternative.png"
   inkscape:export-xdpi="90"
   inkscape:export-ydpi="90">
  <metadata
     id="metadata9">
    <rdf:RDF>
      <cc:Work
         rdf:about="">
        <dc:format>image/svg+xml</dc:format>
        <dc:type
           rdf:resource="http://purl.org/dc/dcmitype/StillImage" />
        <dc:title></dc:title>
      </cc:Work>
    </rdf:RDF>
  </metadata>
  <sodipodi:namedview
     pagecolor="#ffffff"
     bordercolor="#666666"
     borderopacity="1"
     objecttolerance="10"
     gridtolerance="10"
     guidetolerance="10"
     inkscape:pageopacity="0"
     inkscape:pageshadow="2"
     inkscape:window-width="879"
     inkscape:window-height="820"
     id="namedview7"
     showgrid="true"
     inkscape:zoom="2.8663968"
     inkscape:cx="177.37288"
     inkscape:cy="129.41243"
     inkscape:window-x="110"
     inkscape:window-y="271"
     inkscape:window-maximized="0"
     inkscape:current-layer="svg2">
    <inkscape:grid
       type="xygrid"
       id="grid2815" />
  </sodipodi:namedview>
  <defs
     id="defs8">
    <inkscape:perspective
       sodipodi:type="inkscape:persp3d"
       inkscape:vp_x="0 : 150 : 1"
       inkscape:vp_y="0 : 1000 : 0"
       inkscape:vp_z="300 : 150 : 1"
       inkscape:persp3d-origin="150 : 100 : 1"
       id="perspective11" />
    <inkscape:perspective
       id="perspective2838"
       inkscape:persp3d-origin="0.5 : 0.33333333 : 1"
       inkscape:vp_z="1 : 0.5 : 1"
       inkscape:vp_y="0 : 1000 : 0"
       inkscape:vp_x="0 : 0.5 : 1"
       sodipodi:type="inkscape:persp3d" />
  </defs>
  <path
     style="fill:#00437c;fill-opacity:1"
     d="m 104.0542,129.69507 0,39.91729 c 0,5.58086 4.4929,10.07376 10.07376,10.07376 l 68.48585,0 c 5.58086,0 10.07376,-4.4929 10.07376,-10.07376 l 0,-3.00639 c 0.47807,0.0414 0.95841,0.0629 1.4481,0.0629 8.53409,0 15.44119,-6.42594 15.44119,-14.33937 0,-7.91343 -6.9071,-14.32363 -15.44119,-14.32363 -0.48969,0 -0.97003,0.0217 -1.4481,0.063 l 0,-8.37382 -88.63337,0 z m 27.73433,10.6719 c 0.44385,3e-5 0.87853,0.011 1.29069,0.0315 0.41215,0.0204 0.78454,0.0536 1.13331,0.0944 -0.38047,0.42921 -0.87699,1.05092 -1.51107,1.88883 -0.63409,0.8175 -1.2705,1.84314 -1.90457,3.06935 -0.6024,1.20581 -1.13017,2.60857 -1.57402,4.20265 -0.44388,1.57366 -0.66109,3.3425 -0.66109,5.30446 0,1.94156 0.21721,3.71038 0.66109,5.30447 0.44385,1.59411 0.97162,2.99685 1.57402,4.20264 0.63407,1.20579 1.27048,2.22041 1.90457,3.03787 0.63408,0.83792 1.1306,1.45965 1.51107,1.88884 -0.34877,0.0409 -0.73668,0.074 -1.18053,0.0944 -0.44387,0.0204 -0.89407,0.0315 -1.33791,0.0315 -0.41217,0 -0.81582,-0.011 -1.19627,-0.0315 -0.38045,-0.0204 -0.69078,-0.0536 -0.94441,-0.0944 -0.72921,-0.69488 -1.44318,-1.54854 -2.14068,-2.54993 -0.6658,-0.98101 -1.27116,-2.07921 -1.81012,-3.30545 -0.53899,-1.22623 -0.97343,-2.55167 -1.32219,-3.98228 -0.31704,-1.451 -0.4722,-2.9816 -0.4722,-4.59616 0,-1.61452 0.15516,-3.14511 0.4722,-4.59616 0.34876,-1.451 0.7832,-2.7875 1.32219,-4.01376 0.53896,-1.2262 1.14432,-2.34021 1.81012,-3.32119 0.6975,-0.98098 1.41147,-1.81884 2.14068,-2.53418 0.25363,-0.0409 0.56396,-0.074 0.94441,-0.0944 0.41216,-0.0204 0.84683,-0.0315 1.29071,-0.0315 z m 33.16471,0 c 0.44386,3e-5 0.86302,0.011 1.24348,0.0315 0.41216,0.0204 0.738,0.0536 0.99164,0.0944 0.69749,0.71534 1.41169,1.5532 2.1092,2.53418 0.69748,0.98098 1.31836,2.09499 1.85734,3.32119 0.53897,1.22626 0.9579,2.56276 1.27497,4.01376 0.34873,1.45105 0.51941,2.98164 0.51942,4.59616 -1e-5,1.61456 -0.17069,3.14516 -0.51942,4.59616 -0.31707,1.43061 -0.736,2.75605 -1.27497,3.98228 -0.53898,1.22624 -1.15986,2.32444 -1.85734,3.30545 -0.69751,1.00139 -1.41171,1.85505 -2.1092,2.54993 -0.25364,0.0409 -0.56396,0.074 -0.94441,0.0944 -0.38046,0.0204 -0.78411,0.0315 -1.19627,0.0315 -0.44386,0 -0.87832,-0.011 -1.32218,-0.0315 -0.44386,-0.0204 -0.83177,-0.0536 -1.18052,-0.0944 0.38045,-0.42919 0.87698,-1.05092 1.51107,-1.88884 0.63409,-0.81746 1.25495,-1.83208 1.85734,-3.03787 0.63409,-1.20579 1.16165,-2.60853 1.60551,-4.20264 0.44387,-1.59409 0.67683,-3.36291 0.67683,-5.30447 0,-1.96196 -0.23296,-3.7308 -0.67683,-5.30446 -0.44386,-1.59408 -0.97142,-2.99684 -1.60551,-4.20265 -0.60239,-1.22621 -1.22325,-2.25185 -1.85734,-3.06935 -0.63409,-0.83791 -1.13062,-1.45962 -1.51107,-1.88883 0.34875,-0.0409 0.72114,-0.074 1.1333,-0.0944 0.41215,-0.0204 0.83109,-0.0315 1.27496,-0.0315 z m -25.48347,1.18051 3.51008,0 c 2.0571,3e-5 3.63013,0.43615 4.73781,1.30644 1.11898,0.87034 2.06464,2.33443 2.83325,4.39153 l 7.77569,20.69844 -6.06,0 -3.77766,-9.97932 -3.99803,9.97932 -6.07574,0 7.3507,-17.29854 -1.0546,-2.84899 c -0.31649,-0.87029 -0.68805,-1.46215 -1.11755,-1.77864 -0.41821,-0.31646 -1.15691,-0.47219 -2.21938,-0.47222 l -1.90457,0 0,-3.99802 z m 54.6659,3.22675 c 4.49979,0 8.13772,3.3828 8.13772,7.55533 0,4.17253 -3.63793,7.55532 -8.13772,7.55532 -0.4962,0 -0.97624,-0.0471 -1.4481,-0.12593 l 0,-14.8588 c 0.47186,-0.0788 0.9519,-0.12592 1.4481,-0.12592 z"
     id="path2825" />
  <path
     d="m 100,195 c -5.580859,0 -10.073763,-4.4929 -10.073763,-10.07376 l 0,-2.424 115.911233,0 0,2.424 C 205.83747,190.5071 201.34458,195 195.76371,195 L 100,195 z"
     id="path2826"
     style="fill:#00437c;fill-opacity:1" />
  <path
     d="m 127.99862,103.26473 c -2.00324,3e-5 -3.00933,1.00613 -3.00933,3.00934 l 0,19.53661 4.514,0 0,-6.01867 9.01596,0 0,6.01867 4.50197,0 0,-19.53661 c -2e-5,-2.00321 -0.99408,-3.00931 -2.9973,-3.00934 l -12.0253,0 z m 49.58181,0 c -2.00323,3e-5 -3.00934,1.00613 -3.00934,3.00934 l 0,19.53661 4.514,0 0,-6.01867 9.01597,0 0,6.01867 4.50197,0 0,-19.53661 c -2e-5,-2.00321 -1.00612,-3.00931 -3.00934,-3.00934 l -12.01326,0 z m -73.62039,0.012 0,22.5339 4.51401,0 0,-9.00393 6.74091,0 3.76769,9.00393 4.514,0 -4.21307,-10.50859 c -0.63103,-1.8029 -1.78405,-2.79292 -3.46675,-2.97323 l 3.16582,-9.05208 -4.50197,0 -3.15378,9.01597 -2.85285,0 0,-9.01597 -4.51401,0 z m 42.07051,0 0,19.5366 c 0,2.00321 0.99407,2.9973 2.9973,2.9973 l 19.53661,0 c 2.0032,0 3.00931,-0.99409 3.00934,-2.9973 l 0,-19.5366 -4.51401,0 -0.0121,18.03194 -5.98257,0 0,-18.03194 -4.50196,0 0,18.03194 -6.03072,0 0,-18.03194 -4.50196,0 z m -16.52726,4.48993 9.01596,0 0,7.52334 -9.01596,0 0,-7.52334 z m 49.5818,0 9.01597,0 0,7.52334 -9.01597,0 0,-7.52334 z"
     id="path2824"
     style="fill:#00437c;fill-opacity:1" />
</svg>
